<?xml version="1.0" encoding="UTF-8" standalone="no"?>
<svg width="100px" height="100px" viewBox="0 0 100 100" version="1.1" xmlns="http://www.w3.org/2000/svg" xmlns:xlink="http://www.w3.org/1999/xlink" xmlns:sketch="http://www.bohemiancoding.com/sketch/ns">
    <!-- Generator: Sketch 3.1.1 (8761) - http://www.bohemiancoding.com/sketch -->
    <title>code-block</title>
    <desc>Created with Sketch.</desc>
    <defs></defs>
    <g id="Page-1" stroke="none" stroke-width="1" fill="none" fill-rule="evenodd" sketch:type="MSPage">
        <circle id="circle" fill="#000000" sketch:type="MSShapeGroup" cx="50" cy="50" r="50"></circle>
        <path d="M14.501965,50.6367188 L28.8183713,57.2382812 C29.3912908,57.5117201 29.801443,57.7818997 30.04884,58.0488281 C30.2962371,58.3157565 30.4199338,58.6184879 30.4199338,58.9570312 C30.4199338,59.3476582 30.3060026,59.6601551 30.0781369,59.8945312 C29.8502712,60.1289074 29.5345191,60.2460938 29.1308713,60.2460938 C28.9485787,60.2460938 28.7467578,60.213542 28.5254025,60.1484375 C28.3040473,60.083333 27.9915504,59.953126 27.5879025,59.7578125 L12.0605588,52.5117188 C12.0084752,52.4986979 11.9433717,52.4726564 11.8652463,52.4335938 C10.6673236,51.886716 10.0683713,51.2877637 10.0683713,50.6367188 C10.0683713,49.9856738 10.6543029,49.3997422 11.8261838,48.8789062 C11.930351,48.8268227 12.0084752,48.7877605 12.0605588,48.7617188 L27.5879025,41.6328125 C27.9394668,41.4635408 28.238943,41.3430993 28.48634,41.2714844 C28.7337371,41.1998694 28.9485787,41.1640625 29.1308713,41.1640625 C29.5345191,41.1640625 29.8502712,41.2747385 30.0781369,41.4960938 C30.3060026,41.717449 30.4199338,42.0169252 30.4199338,42.3945312 C30.4199338,42.7460955 30.2962371,43.0553372 30.04884,43.3222656 C29.801443,43.589194 29.3912908,43.8528633 28.8183713,44.1132812 L14.501965,50.6367188 Z M47.3457055,63.5273438 C47.0592457,64.1783887 46.7890662,64.6210926 46.5351586,64.8554688 C46.2812511,65.0898449 45.9785198,65.2070312 45.6269555,65.2070312 C45.2623704,65.2070312 44.9433631,65.073569 44.6699243,64.8066406 C44.3964854,64.5397122 44.259768,64.2174498 44.259768,63.8398438 C44.259768,63.7356766 44.2792991,63.6152351 44.3183618,63.4785156 C44.3574245,63.3417962 44.4095073,63.1953133 44.4746118,63.0390625 L56.6621118,36.7695312 C56.9876342,36.0924445 57.2740897,35.6334647 57.5214868,35.3925781 C57.7688838,35.1516915 58.06836,35.03125 58.4199243,35.03125 C58.8105512,35.03125 59.1425791,35.161457 59.416018,35.421875 C59.6894569,35.682293 59.8261743,35.9947898 59.8261743,36.359375 C59.8261743,36.4635422 59.8098984,36.5807285 59.7773461,36.7109375 C59.7447939,36.8411465 59.6959663,36.9648432 59.6308618,37.0820312 L47.3457055,63.5273438 Z M86.9628835,50.6367188 L72.6855397,44.1132812 C72.0865784,43.8398424 71.6634055,43.5696628 71.4160085,43.3027344 C71.1686114,43.035806 71.0449147,42.7330746 71.0449147,42.3945312 C71.0449147,42.0169252 71.1588459,41.717449 71.3867116,41.4960938 C71.6145773,41.2747385 71.923819,41.1640625 72.314446,41.1640625 C72.5097594,41.1640625 72.7278562,41.1998694 72.9687428,41.2714844 C73.2096295,41.3430993 73.5123608,41.4635408 73.876946,41.6328125 L89.4042897,48.7617188 L89.6386647,48.8789062 C90.8105456,49.3997422 91.3964772,49.9856738 91.3964772,50.6367188 C91.3964772,51.2747428 90.8235663,51.8606744 89.6777272,52.3945312 C89.5475182,52.4466148 89.4563733,52.485677 89.4042897,52.5117188 L73.876946,59.7578125 L73.798821,59.796875 C73.1217343,60.0963557 72.6269475,60.2460938 72.314446,60.2460938 C71.923819,60.2460938 71.6145773,60.1289074 71.3867116,59.8945312 C71.1588459,59.6601551 71.0449147,59.3476582 71.0449147,58.9570312 C71.0449147,58.6184879 71.1686114,58.3157565 71.4160085,58.0488281 C71.6634055,57.7818997 72.0865784,57.5117201 72.6855397,57.2382812 L86.9628835,50.6367188 Z" id="&lt;-/->-(outline)" fill="#FFFFFF" sketch:type="MSShapeGroup"></path>
    </g>
</svg>